# xmcd CD database file
#
# Track frame offsets:
#	150
#	17942
#	36092
#	57362
#	76772
#	96127
#	121352
#	153517
#	175410
#	211355
#	240712
#	257600
#	275097
#	314860
#
# Disc length: 4585 seconds
#
# Revision: 0
# Processed by: cddbd v1.5.2PL0 Copyright (c) Steve Scherf et al.
# Submitted via: CDex 1.70beta2
#
DISCID=c711e70e
DTITLE=Monty Alexander - JZAA CALYPSO
DYEAR=2004
DGENRE=Jazz
TTITLE0=SLY MONGOOSE
TTITLE1=REGGAE-LATER
TTITLE2=HAPPY LYPSO
TTITLE3=BIG YELLOW TAXI
TTITLE4=LINSTEAD MARKET
TTITLE5=MONTEVIDEO
TTITLE6=JAMENTO
TTITLE7=S.K.J.
TTITLE8=MANGO RENGUE
TTITLE9=THINK TWICE
TTITLE10=IMPRESSIONS - SO WHAT
TTITLE11=NO WOMAN NO CRY
TTITLE12=SUGAR LOAF AT TWILIGHT
TTITLE13=I'VE GOT YOU UNDER MY SKIN
EXTD=YEAR: 2004
EXTT0=
EXTT1=
EXTT2=
EXTT3=
EXTT4=
EXTT5=
EXTT6=
EXTT7=
EXTT8=
EXTT9=
EXTT10=
EXTT11=
EXTT12=
EXTT13=
PLAYORDER=
